<?xml version="1.0" standalone="no"?>
<!DOCTYPE svg PUBLIC "-//W3C//DTD SVG 20010904//EN"
 "http://www.w3.org/TR/2001/REC-SVG-20010904/DTD/svg10.dtd">
<svg version="1.0" xmlns="http://www.w3.org/2000/svg"
 width="1024.000000pt" height="1024.000000pt" viewBox="0 0 1024.000000 1024.000000"
 preserveAspectRatio="xMidYMid meet">
<metadata>
Created by potrace 1.16, written by Peter Selinger 2001-2019
</metadata>
<g transform="translate(0.000000,1024.000000) scale(0.100000,-0.100000)"
fill="#000000" stroke="none">
<path d="M5035 8856 c-5 -3 -46 -7 -90 -9 -44 -3 -92 -8 -107 -11 -37 -8 -78
-16 -103 -21 -196 -35 -449 -122 -625 -217 -157 -84 -400 -274 -513 -401 -179
-201 -367 -508 -436 -712 -90 -267 -135 -623 -108 -857 15 -137 68 -373 104
-463 178 -449 421 -762 788 -1017 238 -166 566 -299 808 -329 45 -5 93 -12
107 -15 67 -12 338 -16 463 -5 287 24 499 78 712 181 307 148 510 320 765 648
115 148 256 409 314 584 51 155 96 457 96 647 -1 170 -46 428 -106 605 -103
302 -331 647 -564 855 -336 300 -680 457 -1150 525 -49 7 -343 17 -355 12z
m305 -315 c367 -48 706 -196 963 -423 114 -100 171 -164 269 -299 164 -227
236 -397 289 -688 26 -140 32 -476 10 -549 -7 -24 -19 -83 -26 -130 -47 -288
-225 -613 -462 -843 -134 -130 -340 -277 -499 -357 -162 -81 -406 -146 -639
-171 -203 -22 -546 33 -771 123 -365 148 -716 453 -898 782 -95 169 -170 381
-201 561 -24 135 -24 413 0 548 24 141 113 406 175 520 178 329 516 642 848
785 123 53 301 104 452 129 216 35 293 37 490 12z m-1516 -403 c-48 -46 -125
-128 -172 -183 -99 -116 -119 -138 -107 -115 40 72 90 140 103 140 15 0 15 2
2 10 -8 5 -11 10 -7 10 5 0 5 5 1 11 -5 8 -9 8 -14 -1 -5 -9 -9 -8 -12 2 -8
20 153 193 163 176 14 -22 10 -28 -17 -28 -14 0 -23 -4 -19 -10 3 -5 23 -10
43 -10 24 0 32 3 24 9 -10 6 -4 13 21 24 19 9 40 23 47 32 7 8 17 15 22 15 5
0 -30 -37 -78 -82z"/>
<path d="M5050 8427 c-3 -3 -30 -8 -60 -11 -104 -12 -290 -50 -385 -78 -86
-26 -260 -106 -332 -153 -29 -19 -78 -52 -109 -72 -163 -106 -403 -388 -523
-613 -58 -110 -115 -274 -137 -398 -19 -108 -20 -485 -1 -582 l12 -65 200 -8
c110 -4 242 -5 294 -1 l93 6 -6 157 c-12 320 -18 822 -11 945 7 125 7 127 35
141 24 13 202 46 395 75 78 11 77 11 300 45 88 13 187 27 221 30 34 4 108 17
166 29 58 12 147 23 199 25 85 2 116 -3 304 -49 202 -49 467 -123 568 -158
l48 -16 -2 -248 -2 -248 24 -26 c13 -14 44 -64 69 -112 25 -47 52 -89 60 -93
8 -4 49 -12 90 -18 74 -12 133 -38 178 -81 l22 -21 0 64 c0 198 -66 465 -158
637 -64 120 -185 293 -261 374 -74 77 -215 193 -312 256 -169 110 -464 223
-639 244 -19 3 -35 5 -35 6 0 6 -299 23 -305 17z"/>
<path d="M5507 7773 c-4 -3 -7 -93 -7 -198 l0 -192 74 -6 c40 -4 106 -13 147
-22 41 -8 163 -31 272 -50 109 -19 203 -37 208 -40 5 -4 9 61 9 164 0 153 -2
170 -17 175 -10 3 -115 30 -233 61 -118 30 -264 69 -325 85 -121 33 -119 33
-128 23z"/>
<path d="M5305 7760 c-33 -5 -91 -13 -130 -19 -38 -6 -117 -18 -175 -26 -58
-9 -116 -18 -130 -20 -14 -3 -45 -8 -70 -11 -25 -3 -54 -8 -65 -10 -34 -7
-148 -24 -190 -29 -22 -2 -106 -14 -187 -27 l-148 -22 0 -452 0 -451 38 -7
c63 -10 131 -7 196 10 51 14 74 14 136 6 115 -17 410 -25 634 -17 l203 8 6
304 c4 224 3 310 -6 324 -9 14 -9 21 1 31 9 9 12 68 12 215 l0 203 -32 -1
c-18 -1 -60 -5 -93 -9z"/>
<path d="M5460 7300 c0 -6 -4 -8 -10 -5 -6 4 -10 -12 -10 -39 0 -38 3 -46 18
-46 18 0 189 35 226 47 28 8 5 18 -74 31 -133 23 -150 24 -150 12z"/>
<path d="M5820 7168 c-175 -15 -250 -29 -278 -53 l-27 -23 -3 -236 -3 -236
-399 0 -399 0 29 -62 c17 -35 30 -72 30 -84 0 -20 5 -21 248 -27 136 -4 289
-7 340 -7 l92 0 0 44 c0 57 8 76 31 76 15 0 18 -9 21 -57 l3 -58 68 -3 c65 -3
67 -2 67 21 0 93 95 213 189 241 71 21 116 20 166 -3 89 -40 142 -111 154
-206 l6 -50 275 -6 c151 -3 277 -4 279 -3 2 2 -1 23 -7 46 -6 24 -12 84 -13
133 -1 60 -8 104 -20 132 -15 36 -23 43 -61 53 -24 6 -50 13 -58 15 -17 5
-325 50 -471 70 -53 6 -101 15 -107 18 -13 9 -62 132 -62 158 0 20 4 21 58 14
81 -9 242 -41 275 -54 15 -6 27 -16 27 -23 0 -7 11 -21 24 -30 l23 -17 -23 57
c-13 31 -24 62 -24 69 0 18 -26 29 -116 52 -134 35 -241 47 -334 39z m-20
-150 c11 -24 20 -62 20 -85 l0 -43 -100 0 -100 0 0 54 c0 82 12 104 57 109
103 10 102 10 123 -35z"/>
<path d="M5861 6647 c-73 -28 -150 -120 -151 -182 0 -70 62 -164 127 -192 75
-31 157 2 214 87 92 137 -43 341 -190 287z m74 -122 c47 -46 24 -125 -36 -125
-33 0 -69 40 -69 77 0 27 41 73 65 73 9 0 27 -11 40 -25z"/>
<path d="M4485 6625 c-135 -63 -154 -232 -36 -311 58 -38 112 -42 155 -13 41
28 83 90 92 135 13 68 -38 152 -111 185 -48 22 -61 23 -100 4z"/>
<path d="M4878 6394 c-27 -8 -22 -29 13 -58 96 -81 193 -82 253 -4 41 54 36
58 -61 58 -49 0 -110 2 -138 4 -27 3 -58 2 -67 0z"/>
<path d="M6320 6365 c0 -31 57 -73 116 -85 47 -10 63 -9 99 4 50 20 80 49 72
71 -5 11 -22 15 -70 15 -35 0 -98 3 -140 6 -69 6 -77 5 -77 -11z"/>
<path d="M3573 6342 l-21 -3 21 -63 22 -64 50 -6 c72 -8 726 -6 749 3 17 7 15
10 -17 30 -20 12 -47 40 -60 62 l-23 39 -350 2 c-192 2 -359 2 -371 0z"/>
<path d="M5375 6333 l-81 -4 -62 -58 -62 -58 52 -7 c69 -8 498 -8 498 0 0 4
-15 23 -32 43 -18 20 -40 46 -48 58 -13 18 -27 21 -100 25 -47 2 -121 3 -165
1z"/>
<path d="M4732 6267 c-29 -29 -49 -56 -46 -60 12 -11 244 -8 244 3 0 6 -4 10
-8 10 -4 0 -34 23 -67 50 -33 28 -62 50 -65 50 -3 0 -29 -24 -58 -53z"/>
<path d="M3709 6111 l-67 -6 20 -42 20 -43 1446 3 1445 2 20 38 c11 21 16 41
12 45 -8 9 -2804 12 -2896 3z"/>
<path d="M3768 5943 c-34 -5 -34 -8 -2 -50 l25 -33 1328 0 1329 0 26 35 c15
19 25 39 22 44 -6 9 -2673 13 -2728 4z"/>
<path d="M3880 5768 c0 -7 11 -25 24 -40 l24 -26 1188 -3 1189 -4 38 36 c37
35 37 37 15 43 -13 3 -575 6 -1250 6 -976 0 -1228 -3 -1228 -12z"/>
<path d="M4050 5610 c-8 -5 -12 -10 -10 -12 3 -2 22 -18 43 -36 l38 -32 1007
0 1008 0 43 39 c34 31 39 40 26 45 -27 10 -2138 7 -2155 -4z"/>
<path d="M4878 5451 c-328 -3 -599 -9 -603 -12 -8 -9 130 -79 253 -128 178
-71 443 -116 647 -108 238 8 483 66 650 153 50 26 105 54 123 63 17 8 32 19
32 23 0 4 -48 8 -107 8 -60 0 -173 2 -253 4 -80 2 -414 0 -742 -3z"/>
<path d="M2132 6805 l3 -96 120 3 c112 3 120 4 120 23 0 16 -8 21 -38 23 -30
3 -37 7 -35 20 3 13 13 16 41 15 31 -2 37 1 37 17 0 16 -7 20 -34 20 -19 0
-38 5 -41 10 -4 6 11 10 38 10 33 0 47 5 51 17 11 28 -9 35 -78 28 l-66 -7 0
-73 0 -72 -40 1 -40 1 0 65 c0 61 -10 90 -33 90 -4 0 -7 -43 -5 -95z"/>
<path d="M2459 6879 c-33 -33 -22 -69 29 -94 52 -25 54 -40 5 -30 -21 4 -42 7
-47 8 -6 1 -12 -6 -14 -15 -8 -39 104 -52 139 -17 31 31 21 61 -28 84 -58 28
-62 35 -17 32 33 -2 39 1 42 19 5 37 -75 47 -109 13z"/>
<path d="M2626 6884 c-11 -28 -7 -33 32 -36 l37 -3 -3 -68 c-4 -67 -3 -69 20
-65 21 3 23 8 26 69 3 65 4 67 32 73 22 4 30 11 30 26 0 18 -6 20 -84 20 -67
0 -85 -3 -90 -16z"/>
<path d="M7477 6893 c-13 -12 -7 -54 8 -59 8 -4 22 -1 31 6 9 9 18 10 25 3 6
-6 -5 -21 -31 -42 -31 -24 -40 -39 -40 -62 l0 -30 68 3 c52 2 67 6 67 18 0 10
-12 16 -37 18 -46 4 -48 15 -8 32 82 34 57 120 -33 120 -24 0 -47 -3 -50 -7z"/>
<path d="M7679 6881 c-21 -17 -24 -27 -23 -82 1 -72 16 -89 76 -89 32 0 41 5
58 33 58 95 -30 204 -111 138z"/>
<path d="M7962 6887 c-6 -7 -16 -24 -21 -38 l-10 -24 -12 33 c-11 25 -19 32
-41 32 -35 0 -35 -10 -3 -48 14 -17 25 -36 25 -44 0 -8 -11 -24 -25 -36 -14
-12 -25 -26 -25 -32 0 -16 52 -11 73 7 18 17 19 17 28 0 11 -18 44 -23 54 -7
3 5 -3 18 -15 30 -26 26 -25 34 5 86 21 36 22 43 9 48 -23 9 -30 8 -42 -7z"/>
<path d="M8060 6806 c0 -92 3 -96 76 -96 38 0 54 16 54 55 0 49 -20 68 -64 63
-33 -4 -36 -3 -20 9 10 7 26 13 35 13 28 0 49 11 49 26 0 11 -16 14 -65 14
l-65 0 0 -84z"/>
<path d="M2013 4780 c-109 -39 -153 -85 -161 -170 -6 -64 2 -93 38 -134 42
-47 109 -73 224 -85 54 -6 102 -14 107 -17 20 -12 8 -45 -18 -55 -36 -14 -231
-7 -261 10 -20 11 -27 8 -62 -19 -40 -32 -51 -58 -27 -64 6 -2 53 -16 103 -30
78 -23 103 -26 179 -22 184 10 283 107 229 222 -22 47 -78 77 -206 112 -160
43 -186 69 -133 127 25 26 29 27 115 23 88 -3 90 -4 127 -40 l36 -37 23 47
c13 26 33 59 46 74 12 15 19 30 15 34 -11 11 -162 36 -242 40 -61 3 -93 -1
-132 -16z"/>
<path d="M3626 4737 c-18 -13 -19 -18 -7 -57 23 -77 242 -470 262 -470 4 0 19
4 34 10 20 8 38 36 81 127 31 65 68 152 84 193 15 41 36 97 47 123 20 53 13
67 -34 67 -29 0 -42 -22 -94 -155 -55 -145 -91 -198 -115 -172 -7 7 -49 85
-94 175 -46 89 -88 162 -94 162 -6 0 -20 3 -31 6 -11 3 -29 -1 -39 -9z"/>
<path d="M6523 4639 c-62 -18 -110 -114 -83 -164 19 -36 81 -72 154 -91 36 -9
73 -22 83 -30 17 -13 17 -15 -6 -34 -27 -23 -83 -26 -159 -9 -45 11 -53 10
-80 -10 -32 -22 -74 -28 -69 -10 1 6 -4 14 -10 16 -7 3 -13 -2 -13 -10 0 -17
109 -71 176 -88 31 -8 61 -8 105 0 123 21 179 68 179 150 0 66 -47 100 -172
126 -88 19 -107 33 -79 59 29 26 92 31 152 12 28 -10 52 -16 54 -14 8 9 36 70
33 72 -2 2 -30 10 -64 19 -65 18 -150 21 -201 6z"/>
<path d="M7509 4637 c-6 -126 -7 -240 -2 -314 l6 -93 38 0 39 0 0 54 c0 87 42
85 126 -6 l49 -54 52 5 53 6 -45 49 c-64 69 -65 83 -11 138 52 51 58 83 27
134 -29 47 -82 75 -151 80 -33 2 -87 6 -120 8 -41 3 -60 0 -61 -7z m219 -102
c18 -6 16 -81 -4 -89 -9 -3 -45 -6 -80 -6 l-64 0 0 48 c0 27 3 51 6 54 5 6
118 0 142 -7z"/>
<path d="M2548 4436 l3 -204 55 -7 c31 -4 57 -5 58 -3 2 2 0 29 -3 60 l-7 57
30 7 c28 6 36 1 91 -60 l60 -66 54 7 53 8 -57 69 -57 70 24 18 c13 9 26 18 30
18 14 0 38 59 38 91 0 44 -37 95 -86 119 -34 17 -61 20 -165 20 l-124 0 3
-204z m256 85 c39 -43 -10 -81 -105 -81 l-49 0 0 50 0 50 68 0 c55 0 72 -4 86
-19z"/>
<path d="M3090 4440 c0 -111 -3 -207 -7 -213 -4 -7 5 -8 27 -4 18 4 50 7 71 7
37 0 38 1 29 26 -6 14 -10 92 -10 174 0 82 4 160 10 174 9 24 7 26 -18 26 -15
0 -44 3 -64 6 l-37 6 -1 -202z"/>
<path d="M4630 4633 c0 -5 7 -19 16 -32 9 -13 20 -39 25 -60 14 -59 11 -221
-5 -273 -16 -55 -15 -56 56 -37 l43 12 -3 119 c-3 126 2 138 34 75 18 -34 116
-161 146 -189 10 -9 27 -14 38 -11 19 5 20 13 19 112 -1 58 -4 144 -7 191 l-7
84 -43 9 c-24 5 -46 6 -50 3 -6 -7 12 -143 24 -186 5 -18 -20 2 -85 68 -50 51
-101 96 -114 101 -40 15 -87 23 -87 14z"/>
<path d="M5148 4618 c-2 -13 1 -108 6 -211 8 -167 10 -187 25 -182 9 4 30 9
46 12 30 5 30 6 30 66 0 89 18 88 111 -4 l73 -72 50 9 50 9 -101 107 -100 108
66 79 c72 86 72 82 -6 95 -32 6 -39 3 -49 -16 -17 -34 -99 -128 -110 -128 -6
0 -9 28 -8 67 2 58 0 68 -17 74 -38 15 -61 10 -66 -13z"/>
<path d="M5990 4602 c0 -62 12 -72 91 -72 l70 0 -6 -32 c-3 -18 -7 -86 -9
-150 l-5 -118 42 0 42 0 0 155 0 156 70 -3 70 -3 3 50 3 50 -186 0 -185 0 0
-33z"/>
<path d="M7087 4633 c-4 -3 -7 -15 -7 -26 0 -11 -31 -88 -69 -171 -87 -189
-90 -201 -59 -210 13 -3 38 -6 55 -6 30 0 33 3 39 40 l7 40 87 0 88 0 6 -34
c6 -32 9 -34 59 -39 28 -2 53 -4 55 -2 6 5 -52 152 -93 233 -23 48 -51 108
-60 135 -17 46 -19 47 -60 47 -23 0 -45 -3 -48 -7z"/>
<path d="M8126 4629 c-2 -8 -9 -34 -16 -58 -18 -68 -99 -251 -131 -299 -16
-24 -29 -45 -29 -48 0 -2 27 -3 59 -2 l59 3 6 38 6 38 92 -3 92 -3 10 -32 c9
-33 9 -33 73 -33 36 0 63 3 61 8 -2 4 -40 82 -85 173 -45 92 -85 178 -89 193
-5 21 -12 26 -39 26 -18 0 -40 3 -49 6 -9 3 -18 0 -20 -7z"/>
<path d="M4242 4442 c-1 -103 -5 -196 -8 -206 -6 -17 -2 -18 26 -12 18 3 93 6
166 6 128 0 134 1 134 20 0 12 -8 32 -17 46 -16 26 -17 26 -120 19 l-103 -7 0
25 c0 53 6 57 96 57 l84 0 0 34 c0 38 8 34 -122 52 -44 6 -48 8 -48 35 0 15 5
31 10 34 6 4 45 3 86 0 64 -6 77 -11 84 -29 7 -18 9 -16 20 19 6 23 10 51 8
63 -3 22 -7 23 -148 27 l-145 4 -3 -187z"/>
<path d="M5832 4613 c-5 -10 -12 -31 -16 -48 -9 -37 -62 -143 -86 -170 -26
-29 -46 -75 -53 -117 -8 -50 12 -62 68 -42 22 7 41 14 41 14 1 0 4 13 7 29 7
35 22 39 102 29 60 -8 64 -11 106 -69 13 -19 18 -20 40 -9 13 7 25 14 27 15 6
6 -70 191 -101 244 -17 31 -41 74 -52 96 -23 46 -66 60 -83 28z"/>
<path d="M5072 4070 c-56 -13 -112 -80 -112 -132 0 -13 11 -42 25 -65 l24 -43
-26 -17 c-92 -64 -116 -108 -102 -187 13 -74 65 -121 154 -137 87 -16 157 -8
201 24 l37 26 26 -20 c22 -18 34 -20 81 -14 83 10 86 16 30 58 -27 20 -54 37
-60 37 -5 0 -10 3 -10 8 0 12 39 73 83 130 26 34 37 56 30 63 -5 5 -52 12
-105 16 -110 7 -120 1 -89 -53 53 -90 -13 -100 -68 -10 -28 45 -26 63 9 81 41
21 70 71 70 120 0 50 -20 79 -70 105 -41 21 -72 23 -128 10z m52 -395 l76 -74
-34 -10 c-74 -20 -156 24 -156 84 0 25 23 75 34 75 2 0 37 -34 80 -75z"/>
<path d="M2753 4061 c-156 -39 -234 -201 -174 -362 54 -144 186 -208 313 -151
89 39 111 84 58 122 -27 19 -31 20 -53 5 -41 -27 -81 -34 -113 -20 -64 27
-112 120 -100 195 8 50 66 100 118 100 42 0 76 -14 94 -39 10 -13 17 -8 43 34
17 27 31 56 31 65 0 30 -155 66 -217 51z"/>
<path d="M4455 4051 c-22 -10 -55 -34 -73 -55 -28 -32 -32 -44 -32 -95 0 -44
5 -65 21 -85 23 -29 76 -59 124 -70 91 -21 105 -27 105 -45 0 -9 -11 -28 -25
-41 -32 -30 -96 -30 -155 0 -23 12 -43 20 -45 18 -8 -10 -33 -67 -38 -88 -6
-24 -3 -26 71 -48 90 -25 94 -26 162 -11 82 18 159 103 160 177 0 61 -61 115
-167 145 -100 30 -118 56 -66 97 37 29 98 21 131 -16 13 -15 25 -24 27 -22 2
2 19 33 37 70 l34 66 -31 -5 c-17 -3 -55 2 -85 11 -69 21 -105 20 -155 -3z"/>
<path d="M5688 4063 c-67 -4 -68 -4 -54 -26 10 -17 13 -73 12 -248 -1 -212 -2
-228 -21 -249 l-20 -22 46 7 c25 4 61 3 80 -3 l34 -9 -3 146 -3 146 37 -65
c20 -36 52 -89 71 -118 l35 -53 39 67 c22 36 54 94 71 127 30 55 33 58 39 36
12 -41 10 -249 -2 -271 -10 -18 -9 -20 6 -15 9 4 46 7 81 7 64 0 65 0 53 23
-8 14 -14 95 -17 233 -4 180 -2 214 12 242 9 17 16 33 16 34 0 2 -35 4 -78 5
l-79 2 -48 -92 c-26 -51 -57 -107 -67 -125 l-20 -33 -45 78 c-25 43 -58 102
-75 131 -16 28 -31 51 -31 50 -1 -1 -32 -3 -69 -5z"/>
<path d="M8240 4057 c-54 -29 -77 -48 -98 -86 -57 -102 0 -189 149 -227 94
-24 110 -43 68 -85 -18 -18 -29 -21 -71 -16 -27 4 -65 16 -84 27 -18 12 -38
19 -44 15 -11 -7 -64 -105 -58 -109 6 -5 133 -44 162 -50 39 -9 128 11 168 37
53 36 78 82 78 144 0 48 -4 59 -29 82 -17 16 -61 38 -103 51 -142 44 -161 60
-112 99 19 15 41 21 74 21 39 0 54 -5 80 -30 18 -16 33 -30 35 -30 2 0 6 15 9
34 4 19 17 50 30 69 21 30 22 34 6 30 -11 -3 -46 4 -79 16 -69 24 -144 27
-181 8z"/>
<path d="M1740 4050 c0 -4 5 -11 10 -16 12 -12 10 -480 -3 -504 -6 -13 5 -15
72 -15 l78 0 -4 65 c-2 36 -5 75 -7 86 -3 20 3 22 64 28 83 8 147 39 178 86
20 30 23 45 20 97 -4 72 -22 102 -87 148 -42 30 -43 30 -182 30 -76 0 -139 -2
-139 -5z m260 -120 c11 -11 20 -33 20 -50 0 -46 -31 -70 -90 -70 l-50 0 0 70
0 70 50 0 c37 0 55 -5 70 -20z"/>
<path d="M2260 4042 c0 -9 -12 -49 -26 -87 -14 -39 -44 -122 -66 -185 -22 -63
-54 -144 -69 -179 -16 -35 -28 -65 -27 -66 2 -2 31 -5 66 -7 46 -3 62 -1 62 8
0 7 5 36 11 64 l11 50 97 0 98 0 11 -39 c7 -21 12 -49 12 -62 0 -24 1 -24 80
-21 44 2 80 8 80 13 0 5 -13 35 -29 67 -29 57 -154 383 -166 435 -7 26 -9 27
-76 27 -59 0 -69 -3 -69 -18z"/>
<path d="M3016 4049 c8 -14 7 -460 -2 -495 l-7 -27 52 7 c31 4 59 2 71 -4 20
-11 20 -9 14 68 -7 83 -1 132 17 132 11 0 42 -31 97 -98 27 -33 36 -53 35 -78
-1 -28 2 -34 15 -30 31 9 477 11 510 3 l32 -9 0 61 0 61 -119 0 -118 0 -7 38
c-10 64 -14 62 84 62 99 0 94 -3 104 68 l6 42 -95 0 -95 0 0 51 0 51 115 -4
115 -3 0 30 c0 17 6 42 14 57 l14 27 -199 0 c-198 0 -199 -1 -188 -21 16 -30
18 -473 2 -489 -9 -9 -20 3 -50 51 -21 35 -65 99 -98 143 -33 43 -64 85 -69
92 -15 20 12 49 30 34 11 -9 14 -7 14 13 0 36 51 109 98 142 23 16 42 30 42
33 0 2 -41 2 -90 1 -66 -2 -89 -6 -86 -15 5 -12 -36 -67 -109 -148 l-36 -40 3
103 4 102 -64 0 c-43 0 -61 -3 -56 -11z"/>
<path d="M3898 4023 c10 -52 9 -464 -1 -484 -7 -13 2 -15 65 -15 l73 1 0 90 0
90 28 3 c15 2 27 -2 27 -8 0 -6 18 -36 39 -67 22 -30 42 -67 46 -81 5 -26 8
-27 75 -27 72 0 86 9 53 36 -9 8 -34 52 -56 97 -39 84 -39 84 -18 98 39 27 71
97 71 152 0 40 -5 57 -27 83 -48 57 -90 69 -245 69 l-137 0 7 -37z m223 -73
c45 -13 66 -52 50 -93 -12 -32 -46 -47 -102 -47 l-39 0 0 75 0 75 28 0 c15 0
43 -5 63 -10z"/>
<path d="M6384 4046 c-46 -21 -102 -74 -127 -120 -18 -34 -22 -57 -22 -136 0
-86 3 -99 28 -143 18 -30 48 -61 84 -84 47 -32 63 -37 107 -37 68 1 131 30
185 85 62 63 84 112 84 184 1 103 -58 196 -149 240 -50 24 -149 30 -190 11z
m150 -117 c14 -11 33 -34 41 -49 20 -39 19 -117 -3 -160 -22 -45 -77 -76 -117
-66 -37 10 -91 67 -100 107 -21 93 37 189 112 189 26 0 50 -8 67 -21z"/>
<path d="M6720 4028 c11 -18 40 -96 65 -173 25 -77 62 -180 83 -230 l37 -90
54 -5 c42 -5 54 -3 58 10 2 8 14 38 25 65 12 28 34 91 50 140 17 50 53 137 81
195 29 58 53 108 55 113 2 4 -33 7 -77 7 l-81 0 0 -35 c0 -36 -46 -184 -82
-265 -19 -41 -21 -43 -34 -25 -8 10 -14 24 -14 29 0 6 -21 75 -47 154 l-47
142 -73 0 -73 0 20 -32z"/>
<path d="M7254 3976 c9 -111 -8 -429 -23 -434 -37 -12 11 -17 184 -20 l195 -3
0 59 0 59 -110 0 c-60 0 -112 1 -114 4 -2 2 -6 27 -7 54 l-4 50 93 3 c82 2 92
5 92 21 0 10 3 33 6 50 l7 31 -102 0 -101 0 0 51 0 51 115 -4 115 -3 0 42 c0
23 2 48 6 56 4 12 -23 14 -177 14 l-181 0 6 -81z"/>
<path d="M7666 4018 c11 -59 6 -456 -7 -479 -9 -18 -5 -19 69 -19 l79 0 -8 43
c-4 23 -8 66 -9 95 0 51 1 52 29 52 25 0 34 -9 69 -67 22 -38 46 -79 52 -93
10 -23 17 -25 86 -27 60 -2 74 1 74 13 0 8 -7 17 -15 20 -8 3 -35 46 -60 96
l-46 90 35 39 c42 45 50 73 43 137 -4 39 -12 53 -47 84 -51 45 -104 58 -246
58 l-106 0 8 -42z m255 -89 c5 -8 9 -28 9 -46 0 -44 -38 -73 -96 -73 l-44 0 0
71 0 71 61 -4 c38 -3 64 -10 70 -19z"/>
<path d="M1912 3143 c-22 -4 -23 -8 -17 -46 4 -23 9 -44 12 -47 7 -8 5788 -12
6170 -4 l341 6 4 34 c2 19 1 40 -4 47 -6 9 -685 12 -3245 13 -1781 1 -3248 -1
-3261 -3z"/>
<path d="M2245 2736 c-22 -52 -5 -87 56 -121 41 -22 48 -29 38 -41 -6 -7 -15
-12 -19 -9 -3 2 -25 8 -48 14 -50 11 -57 -5 -17 -44 36 -37 80 -33 121 11 19
19 34 44 34 54 0 21 -40 53 -95 76 -51 21 -39 39 26 39 44 0 54 3 57 19 6 27
-15 36 -81 36 -57 0 -58 -1 -72 -34z"/>
<path d="M2460 2641 c0 -124 1 -131 20 -131 16 0 20 7 20 33 0 63 15 66 62 14
27 -29 52 -47 66 -47 29 0 28 5 -8 50 -16 21 -30 40 -30 43 0 4 11 17 25 31
31 31 32 67 1 102 -20 24 -32 28 -90 32 l-66 4 0 -131z"/>
<path d="M2916 2679 c35 -93 63 -147 89 -169 11 -10 19 -1 45 50 28 55 80 188
80 204 0 12 -50 6 -50 -6 0 -7 -16 -44 -34 -82 l-34 -70 -20 40 c-11 21 -23
54 -27 72 -7 33 -30 52 -63 52 -19 0 -18 -5 14 -91z"/>
<path d="M3164 2748 c3 -13 6 -72 6 -131 l0 -108 78 3 c70 3 77 5 80 24 3 19
-3 22 -53 29 -50 6 -56 9 -53 28 3 19 11 22 51 25 39 3 47 6 47 23 0 13 -7 19
-24 19 -51 0 -86 12 -86 30 0 22 20 30 76 30 40 0 44 2 44 25 0 25 -1 25 -86
25 -85 0 -86 0 -80 -22z"/>
<path d="M3370 2640 l0 -130 25 0 c24 0 25 2 25 65 0 36 4 65 8 65 5 0 37 -29
71 -65 35 -36 67 -65 72 -65 11 0 12 11 10 130 -3 115 -6 130 -33 130 -19 0
-20 -5 -16 -68 l3 -68 -68 68 c-38 37 -75 68 -83 68 -11 0 -14 -25 -14 -130z"/>
<path d="M3749 2730 c-18 -22 -35 -40 -39 -40 -4 0 -11 15 -16 33 -6 21 -17
33 -30 35 -20 3 -22 -3 -28 -97 -8 -115 -2 -151 25 -151 13 0 19 7 19 24 0 14
5 37 11 53 l10 27 51 -52 c46 -48 53 -52 96 -52 42 0 49 3 65 31 16 29 21 31
54 26 20 -4 48 -18 63 -32 41 -39 54 -33 45 22 -14 96 -66 193 -102 193 -18 0
-37 -32 -74 -125 -17 -44 -36 -85 -41 -92 -7 -9 -22 7 -54 54 -24 36 -44 68
-44 70 0 3 14 22 30 43 17 21 30 45 30 54 0 30 -39 17 -71 -24z"/>
<path d="M4104 2756 c-10 -25 3 -47 37 -59 30 -12 31 -13 25 -60 -9 -65 2
-119 23 -115 18 4 28 41 30 111 1 41 6 54 33 78 42 40 29 51 -66 57 -64 4 -77
2 -82 -12z"/>
<path d="M5234 2651 c-32 -66 -62 -117 -66 -115 -5 3 -15 19 -24 36 -15 29
-15 32 5 59 61 83 -28 154 -149 120 -21 -6 -25 -12 -22 -42 2 -19 7 -72 10
-118 4 -47 12 -86 17 -88 6 -1 17 18 25 45 19 61 41 65 65 12 18 -40 18 -40
75 -40 53 0 58 2 64 25 4 17 13 25 29 25 42 0 69 -13 77 -36 14 -36 41 -21 34
19 -7 43 -65 206 -75 212 -4 3 -34 -48 -65 -114z"/>
<path d="M4739 2703 c-22 -56 -23 -56 -32 -29 -7 20 -14 26 -28 23 -11 -3 -19
-1 -19 4 0 5 -11 9 -25 9 -17 0 -25 -5 -25 -18 0 -10 -7 -27 -15 -38 -14 -19
-15 -19 -21 3 -3 13 -28 39 -55 58 -52 37 -91 44 -148 24 -28 -10 -31 -15 -31
-50 0 -42 13 -49 51 -29 16 9 21 7 30 -14 6 -13 8 -37 5 -52 -6 -24 -10 -26
-45 -21 -41 5 -71 -6 -71 -27 0 -18 23 -26 75 -26 35 0 48 5 64 26 31 39 27
71 -14 108 -41 38 -44 53 -11 62 48 12 70 2 77 -36 6 -38 66 -150 79 -150 5 0
18 16 30 35 12 19 25 35 30 35 4 0 10 -18 14 -40 7 -44 15 -49 39 -22 22 24
97 182 97 204 0 38 -29 16 -51 -39z"/>
<path d="M4846 2726 c-4 -19 -18 -55 -31 -79 -23 -40 -49 -137 -37 -137 2 0
22 16 44 36 49 44 76 42 92 -6 6 -19 18 -36 26 -38 14 -2 15 8 12 65 -2 37 -6
70 -8 72 -2 2 -12 -3 -22 -12 -20 -19 -42 -22 -42 -8 0 6 5 13 10 16 14 9 12
47 -5 89 -19 45 -31 46 -39 2z"/>
<path d="M5492 2649 c2 -93 6 -114 18 -114 9 0 16 11 18 27 3 21 13 32 45 46
61 27 83 56 71 90 -11 32 -41 48 -107 57 l-48 7 3 -113z"/>
<path d="M5863 2734 c-80 -63 -36 -214 63 -214 31 0 64 21 64 41 0 5 -18 9
-40 9 -53 0 -80 27 -80 79 0 50 19 65 70 58 33 -4 40 -2 40 12 0 46 -67 55
-117 15z"/>
<path d="M6020 2663 c0 -111 6 -143 26 -143 9 0 14 12 14 35 0 19 4 35 8 35 4
0 23 -16 42 -35 31 -32 70 -47 70 -27 0 5 -13 28 -30 50 -36 51 -37 65 -5 117
46 75 18 93 -36 23 -49 -64 -50 -65 -43 -31 7 35 -9 73 -31 73 -12 0 -15 -18
-15 -97z"/>
<path d="M6204 2747 c-2 -7 -3 -60 -2 -118 l3 -104 52 -3 c44 -3 53 0 63 18
15 28 8 33 -38 34 -31 1 -38 5 -40 24 -3 19 1 22 32 22 29 0 36 4 36 20 0 13
-7 20 -19 20 -33 0 -51 11 -51 31 0 15 7 19 39 19 38 0 59 19 45 41 -9 15
-114 11 -120 -4z"/>
<path d="M6356 2744 c-8 -20 -8 -188 0 -208 9 -24 24 -9 24 25 0 16 3 29 6 29
3 0 20 -16 38 -35 51 -54 74 -44 39 16 -13 22 -15 34 -7 47 6 9 17 26 24 38
18 29 6 66 -29 87 -37 22 -87 22 -95 1z"/>
<path d="M7460 2750 c0 -9 55 -173 75 -222 4 -10 13 -18 21 -18 14 0 124 208
124 235 0 25 -49 19 -60 -7 -50 -123 -50 -123 -64 -102 -7 10 -19 37 -26 59
-7 22 -17 46 -23 53 -12 15 -47 16 -47 2z"/>
<path d="M7694 2744 c3 -9 6 -63 6 -120 l0 -104 75 0 c67 0 75 2 75 19 0 20
-26 31 -77 31 -26 0 -33 4 -33 19 0 22 19 31 65 31 32 0 54 14 42 27 -3 3 -30
8 -59 12 -49 6 -53 8 -56 34 -3 28 -3 29 50 27 76 -2 78 -2 78 20 0 18 -7 20
-86 20 -74 0 -85 -2 -80 -16z"/>
<path d="M7892 2639 c3 -116 4 -124 23 -124 16 0 21 8 23 43 4 54 23 55 60 2
21 -30 34 -39 56 -40 28 0 28 1 12 23 -38 52 -41 66 -18 90 28 30 28 55 -2 91
-21 27 -31 30 -90 34 l-67 4 3 -123z"/>
<path d="M8119 2731 c-17 -18 -29 -40 -29 -56 0 -21 8 -30 45 -46 24 -11 47
-24 51 -30 10 -16 -16 -29 -58 -29 -47 0 -51 -22 -8 -40 38 -16 75 -6 106 27
39 42 32 69 -26 98 -59 30 -66 55 -16 55 41 0 56 18 31 37 -30 21 -64 15 -96
-16z"/>
<path d="M5676 2673 c-41 -119 -49 -153 -41 -161 4 -4 12 2 19 12 39 67 86 75
117 21 54 -91 50 9 -5 128 -20 43 -42 77 -50 77 -9 0 -24 -29 -40 -77z"/>
<path d="M6520 2730 c-25 -25 -27 -86 -3 -113 17 -18 17 -19 0 -32 -20 -14
-22 -40 -5 -51 15 -9 96 -6 115 5 14 7 13 11 -6 30 -11 11 -21 32 -21 44 0 25
-22 49 -52 60 -10 4 -18 13 -18 22 0 13 7 15 34 10 26 -5 35 -3 40 10 3 9 4
21 0 26 -10 16 -64 9 -84 -11z"/>
<path d="M7005 2678 c-9 -102 -4 -163 15 -163 11 0 16 15 18 59 l3 59 28 -34
28 -33 25 27 c36 38 48 34 48 -17 0 -35 4 -45 20 -49 19 -5 20 0 20 110 0 103
-2 114 -17 111 -10 -2 -23 -15 -30 -29 -7 -14 -22 -34 -34 -45 -23 -21 -20
-23 -72 51 -31 44 -45 32 -52 -47z"/>
<path d="M7300 2737 c-34 -27 -60 -71 -60 -102 0 -46 61 -115 102 -115 40 0
87 35 104 77 17 40 5 102 -27 134 -22 22 -94 26 -119 6z"/>
<path d="M6750 2704 c-6 -14 -10 -34 -10 -45 0 -11 -7 -36 -15 -56 -15 -36
-11 -53 20 -75 17 -13 62 -9 75 7 11 14 14 13 25 -2 8 -11 18 -14 31 -8 13 5
15 9 6 12 -9 3 -11 16 -6 40 7 40 -8 58 -37 42 -23 -12 -32 3 -24 41 13 60
-44 99 -65 44z"/>
<path d="M4194 2215 c-86 -44 -63 -190 33 -219 57 -18 124 53 103 108 -14 37
-105 44 -98 8 2 -8 12 -20 23 -26 39 -22 41 -46 4 -46 -28 0 -69 48 -69 81 0
54 44 70 116 42 20 -8 30 26 12 44 -23 22 -88 26 -124 8z"/>
<path d="M3632 2193 c2 -22 9 -29 31 -31 27 -3 27 -4 27 -83 0 -77 1 -79 24
-79 23 0 25 4 32 80 4 55 11 80 20 80 17 0 44 28 44 46 0 11 -19 14 -91 14
l-90 0 3 -27z"/>
<path d="M3932 2198 c-27 -30 -62 -106 -62 -139 0 -37 24 -56 45 -35 9 9 25
16 35 16 10 0 25 3 33 6 9 3 16 -3 20 -15 3 -13 13 -21 26 -21 18 0 21 6 21
44 0 49 -23 121 -47 148 -22 24 -45 23 -71 -4z"/>
<path d="M6378 2214 c-10 -9 -10 -124 -2 -176 l7 -38 74 0 c71 0 74 1 71 23
-3 20 -8 22 -50 20 -41 -1 -48 2 -48 18 0 13 7 19 23 19 43 0 67 12 67 32 0
18 -5 20 -45 16 -39 -5 -45 -3 -45 13 0 14 7 19 29 19 42 0 81 17 81 35 0 11
-11 15 -42 15 -24 0 -59 3 -78 6 -19 3 -38 2 -42 -2z"/>
<path d="M4662 2108 c3 -113 18 -135 31 -49 l9 53 42 -41 c54 -53 76 -54 76
-3 0 20 5 57 11 81 11 50 4 61 -45 61 -23 0 -27 -3 -18 -12 7 -7 12 -27 12
-46 l0 -33 -30 21 c-16 12 -33 32 -36 46 -4 17 -13 24 -30 24 l-25 0 3 -102z"/>
<path d="M5578 2128 c-4 -107 0 -128 23 -128 13 0 19 9 21 37 3 31 7 38 33 45
34 9 45 -2 45 -48 0 -29 14 -44 41 -44 11 0 12 57 2 153 -5 62 -8 68 -27 65
-17 -2 -21 -10 -20 -40 1 -34 -1 -36 -32 -40 -29 -3 -34 -1 -34 17 0 39 -12
65 -30 65 -16 0 -19 -11 -22 -82z"/>
<path d="M5856 2118 c3 -51 7 -99 10 -105 2 -9 25 -13 69 -13 63 0 66 1 63 23
-3 19 -10 22 -51 25 -39 3 -48 6 -45 20 2 12 15 18 46 20 37 3 42 6 42 28 0
22 -4 24 -45 24 -33 0 -45 4 -45 15 0 11 12 15 49 15 40 0 50 3 54 20 5 19 0
20 -74 20 l-79 0 6 -92z"/>
<path d="M6098 2113 c2 -54 8 -102 12 -107 16 -17 40 3 40 34 0 40 18 38 60
-5 52 -53 85 -40 41 17 -20 24 -20 25 0 41 23 20 25 64 3 95 -13 19 -24 22
-88 22 l-72 0 4 -97z"/>
<path d="M4990 1967 c-66 -24 -184 -112 -207 -154 -27 -49 -38 -110 -24 -143
5 -14 10 -19 10 -12 1 6 1 14 1 17 1 3 7 22 14 42 7 21 11 43 9 50 -2 6 1 14
6 18 6 3 11 15 11 25 0 40 55 29 157 -31 82 -48 93 -48 251 10 149 54 152 54
152 -8 0 -27 7 -64 15 -82 15 -33 15 -32 13 50 -3 83 -4 84 -41 116 -20 18
-72 50 -114 71 -63 33 -87 39 -147 41 -41 2 -86 -2 -106 -10z"/>
<path d="M4838 1652 c-4 -94 -2 -139 5 -144 6 -4 52 -21 102 -39 49 -17 94
-35 99 -40 6 -5 12 -9 15 -9 4 0 5 61 3 135 l-3 135 -72 36 c-39 20 -88 42
-108 49 l-36 13 -5 -136z"/>
<path d="M5265 1761 c-27 -10 -74 -29 -102 -42 l-53 -24 0 -137 c0 -76 2 -138
4 -138 1 0 56 25 121 56 l118 56 -7 76 c-3 41 -6 97 -6 124 0 54 -1 55 -75 29z"/>
</g>
</svg>
